<svg id="Layer_1" enable-background="new 0 0 512 512" height="512" viewBox="0 0 512 512" width="512" xmlns="http://www.w3.org/2000/svg"><g><g><g><circle cx="256" cy="256" fill="#4cd3aa" r="256"/></g></g><path d="m256 512c141.385 0 256-114.615 256-256 0-6.788-.27-13.513-.788-20.168l-168.017-168.017-189.105 150.018 33.592 33.599c4.341 15.542 16.163 23.192 27.651 33.569l-4.333 42.666-65.732 22.667-95.951 56.723c46.575 63.617 121.797 104.943 206.683 104.943z" fill="#26b290"/><g><path d="m199.97 260.488h112.06v118.84h-112.06z" fill="#f7a969"/><path d="m256 260.491h56.03v118.84h-56.03z" fill="#ea8d4e"/><g><path d="m377.44 446.58v.01l-121.44 65.41-121.44-65.41 50.19-114.3 12.48 13.09c16 16.78 37.39 25.16 58.77 25.16s42.77-8.38 58.77-25.16l12.48-13.09z" fill="#584b66"/><path d="m377.44 446.58-121.44 65.42v-141.46c21.38 0 42.77-8.38 58.77-25.16l12.48-13.09z" fill="#3d3449"/></g><path d="m385.54 332.29h-73.51v.002l-56.03 179.708-56.03-179.708v-.002h-73.5c-41.82 0-75.88 33.26-77.16 74.77 46.57 63.62 121.81 104.94 206.69 104.94s160.12-41.32 206.69-104.94c-1.27-41.52-35.32-74.77-77.15-74.77z" fill="#d36c18"/><path d="m462.69 407.06c-46.57 63.62-121.81 104.94-206.69 104.94l59.766-179.71h69.774c41.83 0 75.88 33.25 77.15 74.77z" fill="#af4b00"/><path d="m349.62 151.149c-3.955-60.043-52.523-82.233-93.62-82.233s-89.666 22.19-93.62 82.233c-10.628 2.055-18.177 15.995-16.988 27.265l1.822 25.648c1.247 11.835 11.65 20.476 23.115 19.19l1.977-.214c23.485 63.063 60.316 69.638 83.694 73.33 23.378-3.692 60.209-10.267 83.694-73.33l1.977.214c11.465 1.286 21.868-7.354 23.115-19.19l1.822-25.648c1.189-11.27-6.36-25.21-16.988-27.265z" fill="#ffbf85"/><path d="m366.609 178.414-1.822 25.648c-1.247 11.835-11.65 20.476-23.115 19.19l-1.977-.214c-8.027 21.528-17.602 36.48-27.664 46.971-19.404 20.242-40.63 23.924-56.03 26.359v-227.452c41.097 0 89.665 22.19 93.62 82.233 10.627 2.055 18.176 15.995 16.988 27.265z" fill="#f7a969"/><path d="m275.826 204.523c-11.431-9.719-28.221-9.719-39.652 0-12.748 10.838-28.758 17.094-45.477 17.771l-18.392.744 1.233 7.414c6.705 40.322 41.586 69.882 82.461 69.882 41.791-2.318 76.381-33.318 83.247-74.606l.447-2.69-18.392-.744c-16.717-.677-32.727-6.933-45.475-17.771z" fill="#efebdc"/><path d="m339.69 223.04-.44 2.69c-3.43 20.65-12.49 39.84-27.22 53.04s-35.13 20.41-56.03 21.56v-103.1c7.06 0 14.12 2.43 19.83 7.29 12.74 10.84 28.75 17.1 45.47 17.77z" fill="#d6cfbd"/><path d="m230.67 42.656c-23.025 4.247-43.836 16.861-57.387 35.954-11.919 16.794-19.965 40.682-10.903 72.539l13.854 46.081 16.349-57.411c12.964-6.527 27.093-16.189 35.75-29.787 0 0 33.471 50.657 99.454 59.178l7.979 28.02 8.127-26.839c7.004.133 14.315-.203 21.947-1.119.001 0 26.964-156.525-135.17-126.616z" fill="#584b66"/><path d="m365.84 169.27c-7.63.92-14.94 1.25-21.95 1.12l-8.12 26.84-7.98-28.02c-31.26-4.04-55.22-17.53-71.79-30.61v-99.26c133.88-9.66 109.84 129.93 109.84 129.93z" fill="#3d3449"/><g><path d="m256 512c-13.42 0-26.6-1.03-39.47-3.02-41.37-45.52-63.2-130.65-63.2-130.65l33.67-16.66-44.17-29.38 57.14-21.96z" fill="#efebdc"/><path d="m325 361.67 33.67 16.66s-21.83 85.13-63.2 130.65h-.01c-12.87 1.99-26.04 3.02-39.46 3.02l56.03-201.67 57.14 21.96z" fill="#d6cfbd"/></g></g></g></svg>