<svg id="Layer_1" enable-background="new 0 0 512 512" height="512" viewBox="0 0 512 512" width="512" xmlns="http://www.w3.org/2000/svg"><g><g><g><path d="m512 256c0 56.5-18.31 108.72-49.31 151.06-46.57 63.62-121.81 39.523-206.69 39.523s-160.12 24.097-206.69-39.523c-31-42.34-49.31-94.56-49.31-151.06 0-141.38 114.62-256 256-256s256 114.62 256 256z" fill="#4cd3aa"/></g></g><path d="m256 446.583c84.88 0 160.12 24.097 206.69-39.523 31-42.34 49.31-94.56 49.31-151.06 0-18.337-1.944-36.218-5.609-53.463l-136.563-136.563-214.986 152.521 40.091 39.822c4.293 15.754 12.954 21.693 24.567 32.183l-6.125 44-164.065 72.56c46.57 63.62 121.81 39.523 206.69 39.523z" fill="#26b290"/><g><path d="m199.97 260.488h112.06v118.84h-112.06z" fill="#f7a969"/><path d="m256 260.491h56.03v118.84h-56.03z" fill="#ea8d4e"/><path d="m385.54 332.29h-73.51v.002l-56.03 28.041-56.03-28.041v-.002h-73.5c-41.82 0-75.88 33.26-77.16 74.77 46.57 63.62 121.81 104.94 206.69 104.94s160.12-41.32 206.69-104.94c-1.27-41.52-35.32-74.77-77.15-74.77z" fill="#4779f4"/><path d="m462.69 407.06c-46.57 63.62-121.81 104.94-206.69 104.94v-151.667l40.167-28.043h89.373c41.83 0 75.88 33.25 77.15 74.77z" fill="#2357cc"/><path d="m312.03 311.667 29.22 20.623-26.25 61.71-59-33.667z" fill="#0a469e"/><path d="m199.97 311.667-29.22 20.623 26.25 61.71 59-33.667z" fill="#2357cc"/><path d="m349.62 151.149c-3.955-60.043-52.523-82.233-93.62-82.233s-89.666 22.19-93.62 82.233c-10.628 2.055-18.177 15.995-16.988 27.265l1.822 25.648c1.247 11.835 11.65 20.476 23.115 19.19l1.977-.214c23.485 63.063 60.316 69.638 83.694 73.33 23.378-3.692 60.209-10.267 83.694-73.33l1.977.214c11.465 1.286 21.868-7.354 23.115-19.19l1.822-25.648c1.189-11.27-6.36-25.21-16.988-27.265z" fill="#ffbf85"/><path d="m366.609 178.414-1.822 25.648c-1.247 11.835-11.65 20.476-23.115 19.19l-1.977-.214c-8.027 21.528-17.602 36.48-27.664 46.971-19.404 20.242-40.63 23.924-56.03 26.359v-227.452c41.097 0 89.665 22.19 93.62 82.233 10.627 2.055 18.176 15.995 16.988 27.265z" fill="#f7a969"/><g><path d="m290.113 64.164c-22.65-2.779-45.576-2.779-68.226 0-44.165 5.418-73.203 47.081-61.638 88.437l5.407 27.399h21.137l7.035-33.34c2.643-12.524 15.682-20.34 28.535-17.104l27.777 6.994c3.841.967 7.877.967 11.718 0l27.778-6.994c12.853-3.236 25.892 4.58 28.535 17.104l7.035 33.34h21.137l5.407-27.399c11.566-41.355-17.473-83.019-61.637-88.437z" fill="#d36c18"/><path d="m352.709 148.729c-.278 1.289-.605 2.587-.963 3.876l-5.4 27.392h-21.142l-6.591-31.269-.437-2.072c-2.65-12.517-15.683-20.337-28.537-17.1l-27.783 6.989c-1.926.487-3.891.726-5.856.726v-75.188c11.395 0 22.79.697 34.116 2.081 13.906 1.7 26.314 6.999 36.419 14.761 11.008 8.431 19.306 19.783 23.842 32.567 1.102 3.103 1.985 6.292 2.62 9.548 1.777 8.899 1.777 18.274-.288 27.689z" fill="#af4b00"/></g><path d="m275.826 204.523c-11.431-9.719-28.221-9.719-39.652 0-12.748 10.838-28.758 17.094-45.477 17.771l-18.392.744 1.233 7.414c6.705 40.322 41.586 69.882 82.461 69.882 41.791-2.318 76.381-33.318 83.247-74.606l.447-2.69-18.392-.744c-16.717-.677-32.727-6.933-45.475-17.771z" fill="#efebdc"/><path d="m339.69 223.04-.44 2.69c-3.43 20.65-12.49 39.84-27.22 53.04s-35.13 20.41-56.03 21.56v-103.1c7.06 0 14.12 2.43 19.83 7.29 12.74 10.84 28.75 17.1 45.47 17.77z" fill="#d6cfbd"/><g><path d="m214.631 24.23-61.072 32.136c-17.506 9.211-23.776 31.174-13.772 48.239l7.707 13.147h217.012l7.707-13.147c10.004-17.065 3.733-39.028-13.772-48.239l-61.072-32.136c-25.896-13.626-56.842-13.626-82.738 0z" fill="#4779f4"/><g><path d="m372.21 104.61-7.7 13.14h-108.51v-103.74c14.21 0 28.42 3.41 41.37 10.22l61.07 32.14c17.51 9.21 23.78 31.17 13.77 48.24z" fill="#2357cc"/></g><path d="m256 100.882-108.506 16.87 4.647 13.251c3.439 9.808 11.783 17.084 21.967 19.157l66.724 13.582c10.01 2.037 20.327 2.037 30.337 0l66.724-13.582c10.184-2.073 18.528-9.349 21.967-19.157l4.647-13.251z" fill="#584b66"/><path d="m364.51 117.75-4.65 13.25c-3.44 9.81-11.78 17.09-21.97 19.16l-66.72 13.58c-5.01 1.02-10.09 1.53-15.17 1.53v-64.39l22.96 3.57z" fill="#3d3449"/></g><path d="m272.671 111.391-16.671 12.609-16.672-12.609c-6.348-4.801-10.078-12.3-10.078-20.259v-22.216l26.75-15.083 26.75 15.083v22.217c0 7.959-3.731 15.457-10.079 20.258z" fill="#ffea92"/><g fill="#eac31c"><path d="m282.75 68.92v22.21c0 4.77-1.34 9.37-3.79 13.32-1.62 2.66-3.75 5.01-6.29 6.94l-8.41 6.36-8.26 6.25v-70.17z"/><path d="m297.845 422.915h71.446v28.915h-71.446z"/></g></g></g></svg>