<svg id="Capa_1" enable-background="new 0 0 512 512" height="512" viewBox="0 0 512 512" width="512" xmlns="http://www.w3.org/2000/svg"><g><g><g><g><g><g><g><path d="m88.222 449.362c-54.047-46.937-88.222-116.159-88.222-193.362 0-141.385 114.615-256 256-256s256 114.615 256 256c0 77.26-34.225 146.526-88.341 193.464z" fill="#fe6a16"/></g></g></g></g></g></g><path d="m509.889 289.031-177.532-177.532-188.44 144.501 60.596 60.596-7.949 4.374 128.464 128.464 98.63.03c46.277-40.138 78.008-96.604 86.231-160.433z" fill="#f24500"/><g><g><path d="m256 408.451c26.063 0 49.166-26.525 63.483-46.046l-14.867-5.302c-10.507-3.747-17.612-14.419-17.612-26.454v-36.249h-61.468v36.249c0 12.035-7.105 22.707-17.612 26.454l-15.294 5.454c14.324 19.435 37.374 45.894 63.37 45.894z" fill="#ffbeaa"/></g><g><path d="m304.615 357.103c-10.507-3.747-17.612-14.419-17.612-26.454v-36.249h-31.359v114.04c.119.001.237.011.356.011 26.063 0 49.166-26.525 63.483-46.046z" fill="#faa68e"/></g><g><path d="m400.156 412.117c-11.164-17.57-27.302-30.68-45.952-37.33l-18.618-6.639-16.104-.495c-14.316 19.521-37.346 32.036-63.409 32.036-25.995 0-50.654-12.982-64.979-32.416l-14.556 1.023-18.204 6.492c-18.65 6.65-34.788 19.761-45.952 37.33l-24.187 37.221c44.935 39.033 103.611 62.661 167.805 62.661 64.125 0 122.743-23.577 167.659-62.536z" fill="#fff"/></g><g><path d="m423.659 449.464-23.503-37.347c-11.164-17.57-27.302-30.68-45.952-37.33l-18.618-6.639-16.104-.495c-14.316 19.521-37.346 32.036-63.409 32.036-.144 0-.286-.006-.43-.007v112.314c.119 0 .237.004.356.004 64.126 0 122.744-23.577 167.66-62.536z" fill="#e9edf5"/></g><g><path d="m256.02 410.242c32.383 0 61.19-18.313 79.576-42.091l-16.113-5.746c-14.317 19.521-37.42 32.195-63.483 32.195-25.996 0-49.046-12.608-63.371-32.043l-16.077 5.733c18.391 23.699 47.148 41.952 79.468 41.952z" fill="#e9edf5"/></g><g><path d="m319.483 362.405c-14.317 19.521-37.42 32.195-63.483 32.195-.119 0-.237-.005-.356-.005v15.641c.126.001.25.007.376.007 32.383 0 61.19-18.313 79.576-42.091z" fill="#cdd2e1"/></g></g><g><g><g><ellipse cx="164.749" cy="229.353" fill="#ffbeaa" rx="33.831" ry="33.831" transform="matrix(.162 -.987 .987 .162 -88.25 354.8)"/></g></g><g><g><ellipse cx="347.251" cy="229.353" fill="#faa68e" rx="33.831" ry="33.831" transform="matrix(.162 -.987 .987 .162 64.708 534.895)"/></g></g></g><g><g><path d="m256 341.504c-53.166 0-96.265-43.099-96.265-96.265v-33.241c0-53.166 43.099-96.265 96.265-96.265 53.166 0 96.265 43.099 96.265 96.265v33.241c0 53.166-43.099 96.265-96.265 96.265z" fill="#ffdecf"/></g></g><g><g><path d="m256 115.734c-.119 0-.237.004-.356.005v225.761c.119 0 .237.004.356.004 53.166 0 96.265-43.099 96.265-96.265v-33.241c0-53.165-43.099-96.264-96.265-96.264z" fill="#ffcdbe"/></g></g><g><path d="m362.104 185.165c0-58.724-47.707-106.307-106.479-106.103-58.642.203-105.729 48.613-105.729 107.255v34.889c0 6.75 5.472 12.221 12.221 12.221 1.453-66.613 42.913-107.208 93.883-107.208s92.43 40.595 93.882 107.208c6.75 0 12.221-5.472 12.221-12.221v-36.041z" fill="#707789"/></g><g><path d="m255.644 79.062v47.161c.119 0 .237-.005.356-.005 50.97 0 92.43 40.595 93.883 107.208 6.75 0 12.221-5.472 12.221-12.221v-36.04c0-58.718-47.697-106.296-106.46-106.103z" fill="#555a66"/></g></g></svg>